#define 11d47e25a0bf4387a3aef7b343815083ji1ax6H7j6jf7N5l_width 128
#define 11d47e25a0bf4387a3aef7b343815083ji1ax6H7j6jf7N5l_height 128
static char 11d47e25a0bf4387a3aef7b343815083ji1ax6H7j6jf7N5l_bits[] = {
  0x00, 0x00, 0x00, 0x00, 0x00, 0x00, 0x00, 0x80, 0x5B, 0x00, 0x00, 0x00, 
  0x00, 0x00, 0x00, 0x00, 0x00, 0x00, 0x00, 0x00, 0x00, 0x00, 0x00, 0xE0, 
  0xFF, 0x01, 0x00, 0x00, 0x00, 0x00, 0x00, 0x00, 0x00, 0x00, 0x00, 0x00, 
  0x00, 0x00, 0x00, 0xF8, 0xFF, 0x03, 0x00, 0x00, 0x00, 0x00, 0x00, 0x00, 
  0x00, 0x00, 0x00, 0x00, 0x00, 0x00, 0x00, 0xFE, 0xE7, 0x0F, 0x00, 0x00, 
  0x00, 0x00, 0x00, 0x00, 0x00, 0x00, 0x00, 0x00, 0x00, 0x00, 0x00, 0xFD, 
  0x83, 0x1B, 0x00, 0x00, 0x00, 0x00, 0x00, 0x00, 0x00, 0x00, 0x00, 0x00, 
  0x00, 0x00, 0x80, 0xFA, 0x39, 0x7F, 0x00, 0x00, 0x00, 0x00, 0x00, 0x00, 
  0x00, 0x00, 0x00, 0x00, 0x00, 0x00, 0x80, 0x6B, 0x11, 0x7F, 0x00, 0x00, 
  0x00, 0x00, 0x00, 0x00, 0x00, 0x00, 0x00, 0x00, 0x00, 0x00, 0x80, 0xF6, 
  0x81, 0xFF, 0x00, 0x00, 0x00, 0x00, 0x00, 0x00, 0x00, 0x00, 0x00, 0x00, 
  0x00, 0x00, 0x60, 0xEB, 0xE3, 0x7F, 0x01, 0x00, 0x00, 0x00, 0x00, 0x00, 
  0x00, 0x00, 0x00, 0x00, 0x00, 0x00, 0xA0, 0xF6, 0xFF, 0xFF, 0x01, 0x00, 
  0x00, 0x00, 0x00, 0x00, 0x00, 0x00, 0x00, 0x00, 0x00, 0x00, 0xD0, 0x96, 
  0xFF, 0xFF, 0x03, 0x00, 0x00, 0x00, 0x00, 0x00, 0x00, 0x00, 0x00, 0x00, 
  0x00, 0x00, 0x20, 0xED, 0xBF, 0xFD, 0x03, 0x00, 0x00, 0x00, 0x00, 0x00, 
  0x00, 0x00, 0x00, 0x00, 0x00, 0x00, 0x90, 0x97, 0xFF, 0xBF, 0x03, 0x00, 
  0x00, 0x00, 0x00, 0x00, 0x00, 0x00, 0x00, 0x00, 0x00, 0x00, 0xF0, 0xF5, 
  0xFF, 0xFF, 0x07, 0x00, 0x00, 0x00, 0x00, 0x00, 0x00, 0x00, 0x00, 0x00, 
  0x00, 0x00, 0x20, 0x2D, 0xB7, 0xF7, 0x07, 0x00, 0x00, 0x00, 0x00, 0x00, 
  0x00, 0x00, 0x00, 0x00, 0x00, 0x00, 0xE0, 0xD6, 0xFF, 0xFF, 0x07, 0x00, 
  0x00, 0x00, 0x00, 0x00, 0x00, 0x00, 0x00, 0x00, 0x00, 0x00, 0x20, 0x95, 
  0xFF, 0xFF, 0x0F, 0x00, 0x00, 0x00, 0x00, 0x00, 0x00, 0x00, 0x00, 0x00, 
  0x00, 0x00, 0x20, 0xEA, 0xDF, 0xFF, 0x06, 0x00, 0x00, 0x00, 0x00, 0x00, 
  0x00, 0x00, 0x00, 0x00, 0x00, 0x00, 0x00, 0x20, 0xFE, 0xEF, 0x0F, 0x00, 
  0x00, 0x00, 0x00, 0x00, 0x00, 0x00, 0x00, 0x00, 0x00, 0x00, 0x00, 0x00, 
  0xFF, 0xFE, 0x07, 0x00, 0x00, 0x00, 0x00, 0x00, 0x00, 0x00, 0x00, 0x00, 
  0x00, 0x00, 0x00, 0xC0, 0xFF, 0xFF, 0x0F, 0x00, 0x00, 0x00, 0x00, 0x00, 
  0x00, 0x00, 0x00, 0x00, 0x00, 0x00, 0x00, 0xC0, 0xEF, 0xBF, 0x07, 0x00, 
  0x00, 0x00, 0x00, 0x00, 0x00, 0x00, 0x00, 0x00, 0x00, 0x00, 0x00, 0xE0, 
  0xFF, 0xFE, 0x07, 0x00, 0x00, 0x00, 0x00, 0x00, 0x00, 0x00, 0x00, 0x00, 
  0x00, 0x00, 0x00, 0x78, 0xF6, 0xFF, 0x07, 0x00, 0x00, 0x00, 0x00, 0x00, 
  0x00, 0x00, 0x00, 0x00, 0x00, 0x00, 0x00, 0xFC, 0xBF, 0xFF, 0x06, 0x00, 
  0x00, 0x00, 0x00, 0x00, 0x00, 0x00, 0x00, 0x00, 0x00, 0x00, 0x00, 0xFE, 
  0xFF, 0xDF, 0x07, 0x00, 0x00, 0x00, 0x00, 0x00, 0x00, 0x00, 0x00, 0x00, 
  0x00, 0x00, 0xC0, 0xFF, 0xFF, 0xFF, 0x07, 0x00, 0x00, 0x00, 0x00, 0x00, 
  0x00, 0x00, 0x00, 0x00, 0x00, 0x00, 0xE0, 0xFF, 0xFE, 0xFB, 0x0F, 0x00, 
  0x00, 0x00, 0x00, 0x00, 0x00, 0x00, 0x00, 0x00, 0x00, 0x00, 0xF0, 0xFF, 
  0xFB, 0xFF, 0x0F, 0x00, 0x00, 0x00, 0x00, 0x00, 0x00, 0x00, 0x00, 0x00, 
  0x00, 0x00, 0xF8, 0xF7, 0xBF, 0xFF, 0x0F, 0x00, 0x00, 0x00, 0x00, 0x00, 
  0x00, 0x00, 0x00, 0x00, 0x00, 0x00, 0xB8, 0xFF, 0xFF, 0xFF, 0x0F, 0x00, 
  0x00, 0x00, 0x00, 0x00, 0x00, 0x00, 0x00, 0x00, 0x00, 0x00, 0xFC, 0xEF, 
  0xFF, 0xB7, 0x1B, 0x00, 0x00, 0x00, 0x00, 0x00, 0x00, 0x00, 0x00, 0x00, 
  0x00, 0x00, 0xFE, 0xDB, 0xFB, 0xFE, 0x1D, 0x00, 0x00, 0x00, 0x00, 0x00, 
  0x00, 0x00, 0x00, 0x00, 0x00, 0x00, 0xFE, 0xFF, 0xBF, 0xEF, 0x0F, 0x00, 
  0x00, 0x00, 0x00, 0x00, 0x00, 0x00, 0x00, 0x00, 0x00, 0x00, 0xFF, 0xFF, 
  0xFF, 0xFF, 0x1F, 0x00, 0x00, 0x00, 0x00, 0x00, 0x00, 0x00, 0x00, 0x00, 
  0x00, 0x00, 0xE7, 0xFF, 0xFF, 0xFF, 0x1F, 0x00, 0x00, 0x00, 0x00, 0x00, 
  0x00, 0x00, 0x00, 0x00, 0x00, 0x80, 0xFF, 0xFF, 0xF7, 0xBF, 0x1F, 0x00, 
  0x00, 0x00, 0x00, 0x00, 0x00, 0x00, 0x00, 0x00, 0x00, 0xC0, 0xFF, 0xEE, 
  0xDF, 0xFF, 0x1F, 0x00, 0x00, 0x00, 0x00, 0x00, 0x00, 0x00, 0x00, 0x00, 
  0x00, 0xC0, 0xB7, 0xFF, 0xFF, 0xF7, 0x1B, 0x00, 0x00, 0x00, 0x00, 0x00, 
  0x00, 0x00, 0x00, 0x00, 0x00, 0xC0, 0xFF, 0xFF, 0xFF, 0xFF, 0x1F, 0x00, 
  0x00, 0x00, 0x00, 0x00, 0x00, 0x00, 0x00, 0x00, 0x00, 0xC0, 0xFF, 0xFF, 
  0xDF, 0xFF, 0x1F, 0x00, 0x00, 0x00, 0x00, 0x00, 0x00, 0x00, 0x00, 0x00, 
  0x00, 0xE0, 0xEF, 0x7F, 0xFF, 0xB7, 0x0F, 0x00, 0x00, 0x00, 0x00, 0x00, 
  0x00, 0x00, 0x00, 0x00, 0x00, 0xE0, 0xFF, 0xFE, 0xFE, 0xFF, 0x1D, 0x00, 
  0x00, 0x00, 0x00, 0x00, 0x00, 0x00, 0x00, 0x00, 0x00, 0xF0, 0xFD, 0xFF, 
  0xFF, 0xFF, 0x0F, 0x00, 0x00, 0x00, 0x00, 0x00, 0x00, 0x00, 0x00, 0x00, 
  0x00, 0xD0, 0xBF, 0xFF, 0xFF, 0xFF, 0x0F, 0x00, 0x00, 0x00, 0x00, 0x00, 
  0x00, 0x00, 0x00, 0x00, 0x00, 0xF0, 0xFF, 0xFF, 0xDF, 0xFB, 0x0F, 0x00, 
  0x00, 0x00, 0x00, 0x00, 0x00, 0x00, 0x00, 0x00, 0x00, 0xF0, 0xFF, 0xFF, 
  0xFF, 0xEF, 0x0D, 0x00, 0x00, 0x00, 0x00, 0x00, 0x00, 0x00, 0x00, 0x00, 
  0x00, 0xF0, 0xFE, 0xEF, 0xFB, 0xFF, 0x0F, 0x00, 0x00, 0x00, 0x00, 0x00, 
  0x00, 0x00, 0x00, 0x00, 0x00, 0xF8, 0xFF, 0xFF, 0xFE, 0xFF, 0x07, 0x00, 
  0x00, 0x00, 0x00, 0x00, 0x00, 0x00, 0x00, 0x00, 0x00, 0xF8, 0xBF, 0xFF, 
  0xFF, 0xFE, 0x07, 0x00, 0x00, 0x00, 0x00, 0x00, 0x00, 0x00, 0x00, 0x00, 
  0x00, 0xF0, 0xFB, 0xFF, 0xFF, 0x7F, 0x07, 0x00, 0x00, 0x00, 0x00, 0x00, 
  0x00, 0x00, 0x00, 0x00, 0x00, 0xBC, 0xFF, 0xDF, 0xBE, 0xFF, 0x03, 0x00, 
  0x00, 0x00, 0x00, 0x00, 0x00, 0x00, 0x00, 0x00, 0x00, 0xFC, 0xFF, 0xFF, 
  0xFB, 0xFF, 0x03, 0x00, 0x00, 0x00, 0x00, 0x00, 0x00, 0x00, 0x00, 0x00, 
  0x00, 0xFC, 0xFF, 0xF7, 0xFF, 0xFB, 0x01, 0x00, 0x00, 0x00, 0x00, 0x00, 
  0x00, 0x00, 0x00, 0x00, 0x00, 0xFC, 0xF7, 0xFF, 0xFF, 0xBF, 0x01, 0x00, 
  0x00, 0x00, 0x00, 0x00, 0x00, 0x00, 0x00, 0x00, 0x00, 0x6C, 0xFF, 0x6F, 
  0xFF, 0xFF, 0x00, 0x00, 0x00, 0x00, 0x00, 0x00, 0x00, 0x00, 0x00, 0x00, 
  0x00, 0xFC, 0xFF, 0xFB, 0xFF, 0x7F, 0x00, 0x00, 0x00, 0x00, 0x00, 0x00, 
  0x00, 0x00, 0x00, 0x00, 0x00, 0xFC, 0xFD, 0xFF, 0xFF, 0x7F, 0x00, 0x00, 
  0x00, 0x00, 0x00, 0x00, 0x00, 0x00, 0x00, 0x00, 0x00, 0x7C, 0xFF, 0x7F, 
  0xFB, 0x3F, 0x00, 0x00, 0x00, 0x00, 0x00, 0x00, 0x00, 0x00, 0x00, 0x00, 
  0x00, 0xFE, 0xFF, 0xFF, 0xFF, 0x17, 0x00, 0x00, 0x00, 0x00, 0x00, 0x00, 
  0x00, 0x00, 0x00, 0x00, 0x00, 0xFE, 0x7F, 0xFF, 0xFF, 0x0F, 0x00, 0x00, 
  0x00, 0x00, 0x00, 0x00, 0x00, 0x00, 0x00, 0x00, 0x00, 0xDE, 0xF7, 0xDE, 
  0xFE, 0x07, 0x00, 0x00, 0x00, 0x00, 0x00, 0x00, 0x00, 0x00, 0x00, 0x00, 
  0x00, 0xFE, 0xFF, 0xFF, 0xEF, 0x03, 0x00, 0x00, 0x00, 0x00, 0x00, 0x00, 
  0x00, 0x00, 0x00, 0x00, 0x00, 0xFE, 0xFF, 0xFF, 0xFF, 0x01, 0x00, 0x00, 
  0x00, 0x00, 0x00, 0x00, 0x00, 0x00, 0x00, 0x00, 0x00, 0xFE, 0xFF, 0xFF, 
  0x7F, 0x00, 0x00, 0x00, 0x00, 0x00, 0x00, 0x00, 0x00, 0x00, 0x00, 0x00, 
  0x00, 0xF6, 0x7F, 0xFF, 0xBF, 0x00, 0x00, 0x00, 0x00, 0x00, 0x00, 0x00, 
  0x00, 0x00, 0x00, 0x00, 0x00, 0xFE, 0xF7, 0xFB, 0x9F, 0x01, 0x00, 0x00, 
  0x00, 0x00, 0x00, 0x00, 0x00, 0x00, 0x00, 0x00, 0x00, 0xFE, 0xFF, 0xFF, 
  0x57, 0x05, 0x00, 0x00, 0x00, 0x00, 0x00, 0x00, 0x00, 0x00, 0x00, 0x00, 
  0x00, 0xFF, 0xFB, 0xFF, 0xD4, 0x06, 0x00, 0x00, 0x00, 0x00, 0x00, 0x00, 
  0x00, 0x00, 0x00, 0x00, 0x00, 0x7E, 0xFF, 0x3E, 0x81, 0x0B, 0x00, 0x00, 
  0x00, 0x00, 0x00, 0x00, 0x00, 0x00, 0x00, 0x00, 0x00, 0xFE, 0xFF, 0x07, 
  0x00, 0x06, 0x00, 0x00, 0x00, 0x00, 0x00, 0x00, 0x00, 0x00, 0x00, 0x00, 
  0x00, 0xFF, 0xEF, 0x0B, 0x00, 0x18, 0x00, 0x00, 0x00, 0xC0, 0xFF, 0x1F, 
  0x00, 0x00, 0x00, 0x00, 0x00, 0xFE, 0x7F, 0x2D, 0xFC, 0x77, 0x01, 0x00, 
  0x00, 0xFC, 0xFF, 0x1F, 0x0C, 0x00, 0x00, 0x00, 0x00, 0xFF, 0x1E, 0xD4, 
  0xFF, 0xE7, 0x7F, 0x00, 0x80, 0xFF, 0xFF, 0x3F, 0xFC, 0x01, 0x00, 0x00, 
  0x00, 0x7E, 0x07, 0x56, 0xFF, 0xFF, 0xFF, 0x07, 0xE0, 0xFF, 0xFF, 0x3F, 
  0xFC, 0x0F, 0x00, 0x00, 0x00, 0xFB, 0xC1, 0xEF, 0xFF, 0xE7, 0xFF, 0x7F, 
  0xF8, 0xFF, 0x83, 0x0F, 0xFC, 0xFF, 0x00, 0x00, 0x00, 0xFF, 0xF8, 0xBF, 
  0xFF, 0xFF, 0xFF, 0xFF, 0xFF, 0x3F, 0x00, 0x0F, 0xFC, 0xFF, 0x03, 0x00, 
  0x80, 0x3F, 0xFE, 0xCF, 0xFF, 0xFF, 0xFF, 0xFF, 0xFF, 0x0F, 0x00, 0x0E, 
  0xFC, 0xFF, 0x1F, 0x00, 0x80, 0x8D, 0xFF, 0xDF, 0xBD, 0x80, 0xFD, 0xFF, 
  0xFF, 0x03, 0x00, 0x00, 0xFC, 0xFF, 0x7F, 0x00, 0xC0, 0xEF, 0xFF, 0xF7, 
  0x0F, 0x00, 0xC0, 0xFF, 0xFF, 0x03, 0x00, 0x01, 0xFC, 0xFF, 0xFF, 0x01, 
  0xE0, 0xFF, 0xFF, 0x7F, 0x0F, 0x00, 0x00, 0xFE, 0xFF, 0x0F, 0x00, 0x01, 
  0xFC, 0xFF, 0xFF, 0x0F, 0xF0, 0xFF, 0xFF, 0xFB, 0x0F, 0x00, 0x00, 0xFC, 
  0xFF, 0x3F, 0x00, 0x01, 0xFC, 0xFF, 0xFF, 0x3F, 0xF8, 0xFE, 0xFF, 0xE1, 
  0x07, 0x00, 0x00, 0xFE, 0xFF, 0xFF, 0x00, 0x01, 0x9C, 0xFF, 0xFF, 0xFF, 
  0xFC, 0xFF, 0x7F, 0xC0, 0x03, 0x00, 0x00, 0xFF, 0xFF, 0xFF, 0x83, 0x01, 
  0x0C, 0xFE, 0xFF, 0xFF, 0x6F, 0xFF, 0x1F, 0x80, 0x03, 0x00, 0x80, 0xFF, 
  0xF1, 0xFF, 0x8F, 0x01, 0x04, 0xF8, 0xFF, 0xFF, 0xFF, 0xFF, 0x07, 0x00, 
  0x00, 0x00, 0xC0, 0xFF, 0xC1, 0xFF, 0xFF, 0x01, 0x00, 0xE0, 0xFF, 0xFF, 
  0xFF, 0xFF, 0x03, 0x00, 0x01, 0x00, 0xE0, 0xFF, 0x80, 0xFF, 0xFF, 0x01, 
  0x04, 0x80, 0xFF, 0xFF, 0xFF, 0xFF, 0x00, 0x00, 0x02, 0x00, 0xF0, 0x3F, 
  0x00, 0xFE, 0xFF, 0x03, 0x04, 0x00, 0xFE, 0xFF, 0xFF, 0x7F, 0x00, 0x00, 
  0x02, 0x00, 0xF0, 0x3F, 0x00, 0xF8, 0xFF, 0x07, 0x04, 0x00, 0xFC, 0xFF, 
  0xFF, 0x3F, 0x00, 0x00, 0x02, 0x00, 0xF8, 0x1F, 0x00, 0xF0, 0xFF, 0x0F, 
  0x04, 0x00, 0xF0, 0xFF, 0xDE, 0x1F, 0x00, 0x00, 0x02, 0x00, 0xFC, 0x0F, 
  0x00, 0xC0, 0xFF, 0x1F, 0x08, 0x00, 0xC0, 0xFF, 0xFF, 0x3F, 0x00, 0x00, 
  0x06, 0x00, 0xFE, 0x07, 0x00, 0x80, 0xFF, 0x3F, 0x08, 0x00, 0x00, 0xFF, 
  0xFF, 0x7F, 0x00, 0x00, 0x02, 0x00, 0xFE, 0x03, 0x00, 0x00, 0xFF, 0x1F, 
  0x08, 0x00, 0x00, 0xFE, 0xFF, 0xFF, 0x00, 0x00, 0x04, 0x00, 0xFF, 0x03, 
  0x00, 0x00, 0xFC, 0x3F, 0x08, 0x00, 0x00, 0xF8, 0xFF, 0xFF, 0x03, 0x00, 
  0x06, 0x80, 0xFF, 0x01, 0x00, 0x00, 0xF8, 0x1F, 0x08, 0x00, 0x00, 0xE0, 
  0xFF, 0xFF, 0x07, 0x00, 0x04, 0x80, 0xFF, 0x01, 0x00, 0x00, 0xF0, 0x1F, 
  0x18, 0x00, 0x00, 0xE0, 0xFF, 0xFF, 0x1F, 0x00, 0x04, 0xC0, 0xFF, 0x00, 
  0x00, 0x00, 0xE0, 0x07, 0x10, 0x00, 0x00, 0xF0, 0xFF, 0xFF, 0x3F, 0x00, 
  0x04, 0xC0, 0x7F, 0x00, 0x00, 0x00, 0x80, 0x07, 0x10, 0x00, 0x00, 0xF8, 
  0xFF, 0xFF, 0xFF, 0x00, 0x04, 0xE0, 0x7F, 0x00, 0x00, 0x00, 0x00, 0x01, 
  0x10, 0x00, 0x00, 0xFC, 0xFF, 0xFF, 0xFF, 0x01, 0x04, 0xE0, 0x3F, 0x00, 
  0x00, 0x00, 0x00, 0x00, 0x30, 0x00, 0x00, 0xFE, 0xFF, 0xFF, 0xFF, 0x07, 
  0x0C, 0xF0, 0x3F, 0x00, 0x00, 0x00, 0x00, 0x00, 0x20, 0x00, 0x00, 0xFE, 
  0xFF, 0xFF, 0xFF, 0x0F, 0x08, 0xF0, 0x1F, 0x00, 0x00, 0x00, 0x00, 0x00, 
  0x20, 0x00, 0x80, 0xFF, 0x1F, 0xFF, 0xFF, 0x1F, 0x08, 0xF8, 0x1F, 0x00, 
  0x00, 0x00, 0x00, 0x00, 0x20, 0x00, 0x80, 0xFF, 0x0F, 0xFE, 0xFF, 0x3F, 
  0x08, 0xF8, 0x0F, 0x00, 0x00, 0x00, 0x00, 0x00, 0x20, 0x00, 0xC0, 0xFF, 
  0x07, 0xFC, 0xFF, 0xFF, 0x18, 0xFC, 0x0F, 0x00, 0x00, 0x00, 0x00, 0x00, 
  0x20, 0x00, 0xF0, 0xFF, 0x07, 0xF0, 0xFF, 0xFF, 0x7D, 0xFC, 0x07, 0x00, 
  0x00, 0x00, 0x00, 0x00, 0x40, 0x00, 0xF0, 0xFF, 0x03, 0xC0, 0xFF, 0xFF, 
  0xFF, 0xFE, 0x07, 0x00, 0x00, 0x00, 0x00, 0x00, 0x00, 0x00, 0xFC, 0xFF, 
  0x01, 0x80, 0xFF, 0xFF, 0xFF, 0xFE, 0x07, 0x00, 0x00, 0x00, 0x00, 0x00, 
  0xC0, 0x01, 0xFE, 0xFF, 0x00, 0x00, 0xFF, 0xFF, 0xFF, 0xFF, 0x03, 0x00, 
  0x00, 0x00, 0x00, 0x00, 0xF0, 0x07, 0xFF, 0x7F, 0x00, 0x00, 0xFC, 0xFF, 
  0xFF, 0xFF, 0x03, 0x00, 0x00, 0x00, 0x00, 0x00, 0xF8, 0x8F, 0xFF, 0x3F, 
  0x00, 0x00, 0xF8, 0xFF, 0xFF, 0xFF, 0x03, 0x00, 0x00, 0x00, 0x00, 0x00, 
  0xFC, 0xFF, 0xFF, 0x3F, 0x00, 0x00, 0xE0, 0xFF, 0xFF, 0xFF, 0x01, 0x00, 
  0x00, 0x00, 0x00, 0x00, 0xF8, 0xFF, 0xFF, 0x0F, 0x00, 0x00, 0xC0, 0xFF, 
  0xFF, 0xFF, 0x01, 0x00, 0x00, 0x00, 0x00, 0x00, 0xFC, 0xFF, 0xFF, 0x0F, 
  0x00, 0x00, 0x00, 0xFF, 0xFF, 0xFF, 0x01, 0x00, 0x00, 0x00, 0x00, 0x00, 
  0xFC, 0xFF, 0xFF, 0x03, 0x00, 0x00, 0x00, 0xFE, 0xFF, 0xFF, 0x00, 0x00, 
  0x00, 0x00, 0x00, 0x00, 0xFC, 0xFF, 0xFF, 0x01, 0x00, 0x00, 0x00, 0xFC, 
  0xFF, 0xFF, 0x00, 0x00, 0x00, 0x00, 0x00, 0x00, 0xFC, 0xFF, 0xFF, 0x00, 
  0x00, 0x00, 0x00, 0xF0, 0xFF, 0xFF, 0x00, 0x00, 0x00, 0x00, 0x00, 0x00, 
  0xFC, 0xFF, 0x3F, 0x00, 0x00, 0x00, 0x00, 0xE0, 0xFF, 0x7F, 0x00, 0x00, 
  0x00, 0x00, 0x00, 0x00, 0xFC, 0xFF, 0x1F, 0x00, 0x00, 0x00, 0x00, 0x80, 
  0xFF, 0x3F, 0x00, 0x00, 0x00, 0x00, 0x00, 0x00, 0xFC, 0xFF, 0x07, 0x00, 
  0x00, 0x00, 0x00, 0x00, 0xFF, 0x1F, 0x00, 0x00, 0x00, 0x00, 0x00, 0x00, 
  0xFC, 0xFF, 0x01, 0x00, 0x00, 0x00, 0x00, 0x00, 0xFC, 0x07, 0x00, 0x00, 
  0x00, 0x00, 0x00, 0x00, 0xFC, 0x7F, 0x00, 0x00, 0x00, 0x00, 0x00, 0x00, 
  0xD0, 0x01, 0x00, 0x00, 0x00, 0x00, 0x00, 0x00, 0xFC, 0x07, 0x00, 0x00, 
  0x00, 0x00, 0x00, 0x00, 0x00, 0x00, 0x00, 0x00, 0x00, 0x00, 0x00, 0x00, 
  0x00, 0x00, 0x00, 0x00, 0x00, 0x00, 0x00, 0x00, 0x00, 0x00, 0x00, 0x00, 
  0x00, 0x00, 0x00, 0x00, 0x00, 0x00, 0x00, 0x00, 0x00, 0x00, 0x00, 0x00, 
  0x00, 0x00, 0x00, 0x00, 0x00, 0x00, 0x00, 0x00, 0x00, 0x00, 0x00, 0x00, 
  0x00, 0x00, 0x00, 0x00, 0x00, 0x00, 0x00, 0x00, 0x00, 0x00, 0x00, 0x00, 
  0x00, 0x00, 0x00, 0x00, 0x00, 0x00, 0x00, 0x00, 0x00, 0x00, 0x00, 0x00, 
  0x00, 0x00, 0x00, 0x00, 0x00, 0x00, 0x00, 0x00, 0x00, 0x00, 0x00, 0x00, 
  0x00, 0x00, 0x00, 0x00, 0x00, 0x00, 0x00, 0x00, };
